<?xml version="1.0" standalone="no"?>
<!DOCTYPE svg PUBLIC "-//W3C//DTD SVG 20010904//EN"
 "http://www.w3.org/TR/2001/REC-SVG-20010904/DTD/svg10.dtd">
<svg version="1.0" xmlns="http://www.w3.org/2000/svg"
 width="2000.000000pt" height="2000.000000pt" viewBox="0 0 2000.000000 2000.000000"
 preserveAspectRatio="xMidYMid meet">
<metadata>
Created by potrace 1.14, written by Peter Selinger 2001-2017
</metadata>
<g transform="translate(0.000000,2000.000000) scale(0.100000,-0.100000)"
fill="#000000" stroke="none">
<path d="M10010 14600 c-2461 -175 -4476 -319 -4477 -319 -2 -1 -3 -1436 -3
-3191 l0 -3190 33 -1 c17 0 313 -15 657 -32 l625 -32 3 -2028 2 -2027 670 0
670 0 0 2000 c0 1898 1 2000 18 2000 9 0 262 -11 562 -25 300 -14 557 -25 573
-25 l27 0 0 -915 0 -915 665 0 665 0 0 880 0 880 25 0 c13 0 876 -38 1917 -85
1041 -47 1896 -85 1900 -85 4 0 7 1671 6 3713 l-3 3712 -30 1 c-16 1 -2044
-141 -4505 -316z m71 -1655 c1354 -58 2463 -105 2465 -105 2 0 4 -767 4 -1705
l0 -1705 -217 -1 c-120 0 -1248 -17 -2508 -38 -1259 -20 -2293 -35 -2297 -33
-5 2 -8 833 -8 1848 l0 1844 50 0 c28 0 1158 -47 2511 -105z"/>
</g>
</svg>
